<svg width="55" height="20" viewBox="0 0 55 20" fill="none" xmlns="http://www.w3.org/2000/svg">
<path d="M27.6782 6.25667H23.067C22.9325 6.25477 22.7991 6.27973 22.6744 6.33011C22.5497 6.38048 22.4363 6.45525 22.3409 6.55003C22.2456 6.64481 22.1701 6.75769 22.1189 6.88204C22.0677 7.00639 22.0419 7.13971 22.0429 7.27417V13.7235C22.0429 14.2955 22.4917 14.741 23.067 14.741C23.2015 14.743 23.3352 14.7182 23.46 14.6679C23.5848 14.6176 23.6983 14.5428 23.7938 14.448C23.8893 14.3532 23.9649 14.2403 24.0161 14.1159C24.0674 13.9914 24.0932 13.858 24.0922 13.7235V11.5048H27.1502C27.6782 11.5048 28.0918 11.0945 28.0918 10.5709C28.0925 10.4474 28.0686 10.325 28.0215 10.2108C27.9743 10.0967 27.9049 9.99308 27.8172 9.90611C27.7295 9.81914 27.6254 9.75054 27.5108 9.70433C27.3963 9.65812 27.2737 9.63522 27.1502 9.63698H24.0922V8.13107H27.6804C27.9291 8.13195 28.1679 8.03409 28.3445 7.85898C28.521 7.68387 28.6208 7.44584 28.622 7.19717C28.6206 6.94761 28.5205 6.70874 28.3438 6.53258C28.167 6.35642 27.9278 6.25725 27.6782 6.25667ZM31.3214 6.18957C31.1869 6.18752 31.0532 6.21238 30.9284 6.26268C30.8036 6.31299 30.6901 6.38774 30.5946 6.48253C30.4991 6.57733 30.4235 6.69025 30.3723 6.81468C30.321 6.9391 30.2952 7.07251 30.2962 7.20707V13.6553C30.2962 14.2273 30.7461 14.6728 31.3214 14.6728H35.5784C36.1064 14.6728 36.52 14.2625 36.52 13.7389C36.5207 13.6155 36.4969 13.4932 36.4498 13.3791C36.4027 13.265 36.3333 13.1615 36.2458 13.0745C36.1582 12.9876 36.0542 12.9189 35.9398 12.8727C35.8254 12.8264 35.7029 12.8034 35.5795 12.805H32.3455V7.20707C32.3465 7.07261 32.3207 6.93929 32.2695 6.81494C32.2183 6.69059 32.1428 6.57771 32.0475 6.48293C31.9521 6.38815 31.8387 6.31338 31.714 6.26301C31.5893 6.21263 31.4559 6.18767 31.3214 6.18957ZM41.5371 6.11917C39.0093 6.11917 37.0304 8.02878 37.0304 10.4642V10.4873C37.0304 12.9524 38.9576 14.8103 41.5151 14.8103C44.0429 14.8103 46.0218 12.9018 46.0218 10.4653V10.4433C46.0218 7.97707 44.0946 6.11917 41.5371 6.11917ZM43.8911 10.4873C43.8911 11.8711 42.8791 12.9183 41.5371 12.9183C40.183 12.9183 39.1611 11.8645 39.1611 10.4653V10.4433C39.1611 9.05947 40.1731 8.01227 41.5151 8.01227C42.8692 8.01227 43.8911 9.06608 43.8911 10.4653V10.4873ZM50.2986 14.818C51.2457 14.818 52.0872 14.5188 52.734 13.9512L52.8792 13.8258L52.9243 14.0128C53.0277 14.433 53.4512 14.7278 53.9495 14.7278C54.0863 14.7306 54.2222 14.706 54.3494 14.6557C54.4766 14.6053 54.5925 14.5301 54.6903 14.4345C54.7881 14.3388 54.8659 14.2246 54.919 14.0986C54.9722 13.9726 54.9997 13.8372 55 13.7004V9.61827C55 8.46548 54.6865 7.57997 54.0683 6.97827L54.0661 6.97607C53.4479 6.34687 52.4612 6.01357 51.2138 6.01357C50.2802 6.00239 49.3531 6.17004 48.4825 6.50747C48.3092 6.57667 48.1602 6.69557 48.0543 6.84922C47.9485 7.00286 47.8904 7.1844 47.8874 7.37097C47.8874 7.86817 48.301 8.27297 48.8114 8.27297C48.9148 8.27297 49.0182 8.25647 49.1414 8.22127L49.1579 8.21467C49.7337 7.99513 50.3458 7.88652 50.9619 7.89457C51.5724 7.89457 52.0476 8.02657 52.3743 8.28617C52.7076 8.55237 52.888 8.94618 52.9111 9.46648L52.9177 9.62708L52.7626 9.58528C52.1196 9.40627 51.4545 9.31887 50.787 9.32568C49.6848 9.32568 48.7729 9.58197 48.1558 10.0704C47.5442 10.5522 47.2241 11.2584 47.2241 12.112V12.1439C47.2241 13.7169 48.4891 14.8169 50.2986 14.8169V14.818ZM49.3262 12.035C49.3262 11.5433 49.5814 11.1748 50.0632 10.9658C50.4372 10.8052 50.8706 10.77 51.1654 10.77C51.9244 10.77 52.5074 10.9141 52.866 11.0362L52.943 11.0626V11.5466C52.943 12.5069 52.0542 13.2032 50.8321 13.2032C50.4515 13.2032 50.0951 13.1163 49.8333 12.959C49.6751 12.8708 49.544 12.7411 49.4541 12.5839C49.3641 12.4267 49.3188 12.2479 49.3229 12.0669V12.0339H49.3262V12.035ZM18.1467 1.34297C17.8119 1.00487 17.382 0.776719 16.9144 0.688884C16.4467 0.60105 15.9634 0.657691 15.5287 0.851274C14.2857 1.38477 13.6301 2.57827 13.1483 3.67607L11.2805 8.16077L15.7861 6.31167L15.7971 6.30837C16.9026 5.82987 18.1049 5.17867 18.6417 3.94557C18.8368 3.5135 18.8939 3.0318 18.8053 2.56608C18.7168 2.10036 18.4868 1.67327 18.1467 1.34297ZM17.5714 3.48357C17.3613 3.96757 16.9279 4.55607 15.334 5.24357L13.4266 6.02567L14.2153 4.13257C14.6069 3.24267 15.1206 2.28347 15.9863 1.91057C16.2073 1.80823 16.4545 1.77708 16.694 1.82142C16.9334 1.86575 17.1531 1.9834 17.3228 2.15807C17.6847 2.51777 17.7782 3.01607 17.5714 3.48357ZM15.543 8.60077C14.2373 8.08707 12.8656 8.48417 11.6963 8.94397L10.4808 9.44447C10.3397 9.25606 10.1719 9.08929 9.9825 8.94947L10.483 7.75267L10.4863 7.74277C10.9461 6.58117 11.3498 5.22047 10.8328 3.92357C10.6562 3.46413 10.3431 3.06981 9.93556 2.7937C9.52808 2.51758 9.04579 2.37292 8.5536 2.37917C8.06141 2.37292 7.57912 2.51758 7.17164 2.7937C6.76415 3.06981 6.45102 3.46413 6.2744 3.92357C6.15605 4.22519 6.0798 4.54166 6.0478 4.86407C5.79757 4.65659 5.51903 4.48584 5.2206 4.35697C4.77057 4.15582 4.26996 4.09648 3.78538 4.18688C3.3008 4.27727 2.85524 4.5131 2.508 4.86297C2.15543 5.20473 1.91706 5.64707 1.8255 6.12948C1.73394 6.61189 1.79367 7.11081 1.9965 7.55797C2.1285 7.86597 2.3045 8.13437 2.508 8.37857C2.1912 8.40717 1.8744 8.47757 1.5609 8.60297C0.5984 8.97697 0 9.84268 0 10.8635C0 11.8843 0.594 12.7511 1.5554 13.1262C1.85924 13.2431 2.17743 13.3185 2.5014 13.3506C2.29284 13.5987 2.12096 13.8754 1.991 14.1723C1.78858 14.6193 1.72908 15.118 1.82062 15.6001C1.91217 16.0823 2.1503 16.5244 2.5025 16.8662C2.9777 17.337 3.5849 17.5812 4.2163 17.5812C4.5485 17.5812 4.8873 17.5141 5.2151 17.3722C5.51367 17.244 5.79226 17.0736 6.0423 16.8662C6.072 17.1797 6.1424 17.4943 6.2689 17.8056C6.44546 18.2648 6.75841 18.659 7.16568 18.9351C7.57295 19.2112 8.055 19.356 8.547 19.35C9.03919 19.3562 9.52148 19.2116 9.92897 18.9355C10.3365 18.6593 10.6496 18.265 10.8262 17.8056C10.9494 17.4943 11.0198 17.1797 11.0528 16.8662C11.2981 17.0675 11.5731 17.2402 11.88 17.3722C12.3301 17.5732 12.8308 17.6324 13.3154 17.5418C13.8 17.4512 14.2455 17.2151 14.5926 16.8651C14.9445 16.5234 15.1824 16.0814 15.2737 15.5994C15.3651 15.1175 15.3055 14.6191 15.103 14.1723C14.9739 13.8749 14.8019 13.5981 14.5926 13.3506C14.9094 13.322 15.2262 13.2516 15.5397 13.1262C15.9999 12.9543 16.396 12.645 16.6743 12.2402C16.9526 11.8353 17.0995 11.3547 17.0951 10.8635C17.0951 9.84597 16.5022 8.97587 15.543 8.60077ZM1.9855 12.0504C1.74166 11.9629 1.53132 11.8013 1.38396 11.5883C1.2366 11.3752 1.15961 11.1214 1.1638 10.8624C1.1638 10.3212 1.4718 9.87788 1.9855 9.67548C2.26182 9.56543 2.5571 9.51086 2.8545 9.51488C3.333 9.51488 3.9765 9.63368 4.9082 9.99338C4.9236 9.99998 4.9434 10.0099 4.9599 10.0154L6.1754 10.517C6.14274 10.749 6.14274 10.9845 6.1754 11.2166L4.9687 11.7116L4.9599 11.7138C4.9401 11.7237 4.9203 11.7303 4.8983 11.7391C3.96 12.0988 2.8908 12.4068 1.9855 12.0504ZM6.6209 13.9765L6.6176 13.9864C6.611 14.0062 6.6022 14.0249 6.5956 14.0469C6.1886 14.9621 5.6518 15.9279 4.7586 16.3129C4.52287 16.4214 4.25935 16.4544 4.00414 16.4073C3.74893 16.3603 3.51452 16.2354 3.333 16.05C3.14664 15.8711 3.02096 15.6384 2.97361 15.3845C2.92626 15.1306 2.95962 14.8683 3.069 14.6343C3.289 14.1305 3.7345 13.5211 5.357 12.8083L5.4087 12.7885L6.6242 12.288C6.7672 12.4772 6.9344 12.6444 7.1225 12.783L6.6209 13.9765ZM6.6209 9.44117L5.4153 8.94397L5.4054 8.94067C5.3867 8.93407 5.3636 8.92418 5.3438 8.91867C4.4231 8.51388 3.4496 7.98037 3.0613 7.09487C2.8413 6.59107 2.9425 6.06087 3.3264 5.67917C3.7114 5.29747 4.2449 5.19737 4.752 5.41517C5.2602 5.63517 5.874 6.07737 6.5923 7.68887C6.59823 7.70774 6.60558 7.72612 6.6143 7.74387L7.1192 8.95057C6.9322 9.08807 6.7639 9.25527 6.6209 9.44117ZM9.7471 17.3788C9.5436 17.8892 9.0981 18.195 8.5514 18.195C8.0047 18.195 7.5592 17.8892 7.3546 17.3788C7.1511 16.8684 7.0323 16.1248 7.6714 14.4803C7.678 14.4616 7.6879 14.4451 7.6945 14.4253L8.1994 13.2197C8.43295 13.2521 8.66985 13.2521 8.9034 13.2197L9.4017 14.4165L9.405 14.4264C9.4149 14.4451 9.4204 14.4649 9.4303 14.4869C9.7955 15.4219 10.1068 16.479 9.7471 17.3788ZM7.3128 10.8635C7.3128 10.1859 7.8694 9.63367 8.5514 9.63367C9.2334 9.63367 9.79 10.1859 9.79 10.8635C9.79 11.54 9.2334 12.0922 8.5514 12.0922C7.8694 12.0922 7.3128 11.54 7.3128 10.8635ZM9.405 7.31047L8.9067 8.50397C8.67174 8.47074 8.43326 8.47074 8.1983 8.50397L7.6978 7.30717L7.6945 7.29617C7.6846 7.27747 7.678 7.25877 7.6681 7.23567C7.3029 6.30507 6.9971 5.24247 7.3546 4.34377C7.5592 3.83337 8.0047 3.52977 8.5514 3.52977C9.0981 3.52977 9.5436 3.83337 9.7471 4.34377C9.9539 4.86077 10.0738 5.61977 9.405 7.31047ZM13.772 16.0467C13.387 16.4295 12.8546 16.5285 12.3464 16.3107C11.8393 16.0918 11.2244 15.6496 10.5072 14.0381C10.5012 14.0192 10.4939 14.0008 10.4852 13.9831L9.9803 12.7764C10.1706 12.6356 10.3389 12.4684 10.4786 12.2814L11.6842 12.7797L11.6941 12.783L11.7524 12.805C12.6731 13.2098 13.6499 13.7422 14.0349 14.631C14.2571 15.1326 14.1603 15.6617 13.772 16.0467ZM15.114 12.0504C14.6003 12.2528 13.8501 12.3716 12.1946 11.7358L12.1429 11.7138L10.9274 11.2133C10.9605 10.9798 10.9605 10.7428 10.9274 10.5093L12.1297 10.0154C13.0867 9.64357 14.19 9.30918 15.1173 9.67548C15.631 9.87788 15.939 10.3212 15.939 10.8635C15.939 11.4058 15.6277 11.848 15.114 12.0504Z" fill="#009FFF"/>
</svg>
