<svg width="36" height="24" viewBox="0 0 36 24" fill="none" xmlns="http://www.w3.org/2000/svg">
<rect width="36" height="24" rx="2" fill="#F2F2F2"/>
<g clip-path="url(#clip0_4502_9681)">
<path d="M17.8271 9.84152H15.337C15.2644 9.84049 15.1924 9.85397 15.125 9.88117C15.0577 9.90838 14.9965 9.94875 14.945 9.99993C14.8935 10.0511 14.8527 10.1121 14.8251 10.1792C14.7974 10.2464 14.7835 10.3184 14.784 10.391V13.8736C14.784 14.1825 15.0264 14.423 15.337 14.423C15.4097 14.4242 15.4818 14.4107 15.5492 14.3836C15.6166 14.3564 15.6779 14.316 15.7295 14.2648C15.7811 14.2137 15.8219 14.1527 15.8496 14.0855C15.8772 14.0183 15.8912 13.9463 15.8906 13.8736V12.6755H17.542C17.8271 12.6755 18.0504 12.4539 18.0504 12.1712C18.0508 12.1045 18.0379 12.0384 18.0125 11.9768C17.987 11.9151 17.9495 11.8592 17.9021 11.8122C17.8548 11.7653 17.7985 11.7282 17.7367 11.7033C17.6749 11.6783 17.6087 11.6659 17.542 11.6669H15.8906V10.8537H17.8283C17.9626 10.8542 18.0915 10.8013 18.1869 10.7068C18.2822 10.6122 18.3361 10.4837 18.3367 10.3494C18.336 10.2146 18.282 10.0856 18.1865 9.99051C18.091 9.89538 17.9619 9.84183 17.8271 9.84152ZM19.7944 9.80529C19.7218 9.80418 19.6496 9.8176 19.5822 9.84477C19.5148 9.87193 19.4535 9.9123 19.402 9.96348C19.3504 10.0147 19.3096 10.0757 19.2819 10.1428C19.2542 10.21 19.2402 10.2821 19.2408 10.3547V13.8368C19.2408 14.1456 19.4838 14.3862 19.7944 14.3862H22.0932C22.3783 14.3862 22.6017 14.1647 22.6017 13.8819C22.6021 13.8153 22.5892 13.7492 22.5637 13.6876C22.5383 13.626 22.5009 13.5701 22.4536 13.5232C22.4063 13.4762 22.3501 13.4391 22.2883 13.4141C22.2266 13.3892 22.1604 13.3767 22.0938 13.3776H20.3474V10.3547C20.348 10.2821 20.334 10.2101 20.3064 10.143C20.2788 10.0758 20.238 10.0149 20.1865 9.9637C20.135 9.91252 20.0738 9.87214 20.0064 9.84494C19.9391 9.81774 19.867 9.80426 19.7944 9.80529ZM25.3109 9.76727C23.9459 9.76727 22.8773 10.7985 22.8773 12.1136V12.126C22.8773 13.4572 23.918 14.4605 25.299 14.4605C26.664 14.4605 27.7326 13.4299 27.7326 12.1142V12.1023C27.7326 10.7705 26.6919 9.76727 25.3109 9.76727ZM26.5821 12.126C26.5821 12.8733 26.0356 13.4388 25.3109 13.4388C24.5797 13.4388 24.0279 12.8697 24.0279 12.1142V12.1023C24.0279 11.355 24.5743 10.7895 25.299 10.7895C26.0302 10.7895 26.5821 11.3586 26.5821 12.1142V12.126ZM30.0421 14.4646C30.5535 14.4646 31.0079 14.3031 31.3572 13.9966L31.4356 13.9288L31.46 14.0298C31.5158 14.2567 31.7445 14.4159 32.0136 14.4159C32.0874 14.4174 32.1609 14.4042 32.2295 14.377C32.2982 14.3498 32.3608 14.3092 32.4136 14.2575C32.4664 14.2059 32.5084 14.1442 32.5371 14.0762C32.5659 14.0081 32.5807 13.935 32.5809 13.8611V11.6568C32.5809 11.0343 32.4116 10.5561 32.0777 10.2312L32.0766 10.23C31.7427 9.89023 31.2099 9.71025 30.5363 9.71025C30.0322 9.70421 29.5315 9.79474 29.0614 9.97695C28.9678 10.0143 28.8874 10.0785 28.8302 10.1615C28.773 10.2445 28.7417 10.3425 28.7401 10.4432C28.7401 10.7117 28.9634 10.9303 29.239 10.9303C29.2949 10.9303 29.3507 10.9214 29.4172 10.9024L29.4261 10.8988C29.737 10.7803 30.0676 10.7216 30.4003 10.726C30.73 10.726 30.9866 10.7973 31.163 10.9375C31.343 11.0812 31.4404 11.2939 31.4529 11.5748L31.4564 11.6615L31.3727 11.639C31.0254 11.5423 30.6663 11.4951 30.3058 11.4988C29.7107 11.4988 29.2182 11.6372 28.885 11.9009C28.5547 12.1611 28.3819 12.5424 28.3819 13.0034V13.0206C28.3819 13.87 29.065 14.464 30.0421 14.464V14.4646ZM29.517 12.9618C29.517 12.6963 29.6548 12.4973 29.915 12.3844C30.1169 12.2977 30.351 12.2787 30.5102 12.2787C30.92 12.2787 31.2349 12.3565 31.4285 12.4225L31.4701 12.4367V12.6981C31.4701 13.2166 30.9901 13.5926 30.3302 13.5926C30.1247 13.5926 29.9322 13.5457 29.7908 13.4608C29.7054 13.4131 29.6346 13.3431 29.5861 13.2582C29.5375 13.1733 29.513 13.0768 29.5152 12.979V12.9612H29.517V12.9618ZM12.6801 7.18812C12.4993 7.00554 12.2672 6.88234 12.0146 6.83491C11.7621 6.78748 11.5011 6.81807 11.2664 6.9226C10.5951 7.21069 10.2411 7.85518 9.98094 8.448L8.97233 10.8697L11.4054 9.87122L11.4113 9.86944C12.0083 9.61105 12.6575 9.2594 12.9474 8.59353C13.0527 8.36021 13.0836 8.10009 13.0357 7.8486C12.9879 7.59711 12.8637 7.36648 12.6801 7.18812ZM12.3694 8.34405C12.256 8.60541 12.0219 8.9232 11.1612 9.29445L10.1312 9.71678L10.5571 8.69451C10.7686 8.21396 11.046 7.69599 11.5135 7.49463C11.6328 7.43936 11.7663 7.42254 11.8956 7.44648C12.0249 7.47042 12.1436 7.53395 12.2352 7.62828C12.4306 7.82251 12.4811 8.0916 12.3694 8.34405ZM11.2741 11.1073C10.569 10.8299 9.82828 11.0444 9.19686 11.2927L8.54049 11.5629C8.46431 11.4612 8.37366 11.3711 8.27141 11.2956L8.54168 10.6494L8.54346 10.644C8.79175 10.0168 9.00975 9.28197 8.73057 8.58165C8.6352 8.33355 8.46611 8.12062 8.24606 7.97151C8.02602 7.82241 7.76558 7.74429 7.4998 7.74767C7.23402 7.74429 6.97359 7.82241 6.75354 7.97151C6.5335 8.12062 6.36441 8.33355 6.26904 8.58165C6.20513 8.74452 6.16395 8.91541 6.14667 9.08952C6.01155 8.97747 5.86114 8.88527 5.69998 8.81568C5.45697 8.70706 5.18664 8.67502 4.92496 8.72383C4.66329 8.77264 4.42269 8.89999 4.23518 9.08892C4.04479 9.27347 3.91607 9.51233 3.86663 9.77284C3.81719 10.0333 3.84944 10.3028 3.95897 10.5442C4.03025 10.7105 4.12529 10.8555 4.23518 10.9873C4.06411 11.0028 3.89304 11.0408 3.72375 11.1085C3.204 11.3105 2.88086 11.778 2.88086 12.3292C2.88086 12.8804 3.20162 13.3485 3.72078 13.5511C3.88485 13.6142 4.05667 13.6549 4.23162 13.6722C4.11899 13.8062 4.02618 13.9556 3.956 14.1159C3.84669 14.3574 3.81456 14.6266 3.864 14.887C3.91343 15.1473 4.04202 15.3861 4.23221 15.5707C4.48882 15.8249 4.81671 15.9568 5.15766 15.9568C5.33705 15.9568 5.52 15.9205 5.69701 15.8439C5.85824 15.7747 6.00868 15.6827 6.1437 15.5707C6.15974 15.7399 6.19776 15.9098 6.26607 16.0779C6.36141 16.3259 6.5304 16.5388 6.75033 16.6879C6.97025 16.837 7.23056 16.9152 7.49624 16.9119C7.76202 16.9153 8.02246 16.8372 8.2425 16.6881C8.46254 16.539 8.63163 16.326 8.72701 16.0779C8.79354 15.9098 8.83155 15.7399 8.84937 15.5707C8.98183 15.6794 9.13033 15.7726 9.29606 15.8439C9.53913 15.9524 9.8095 15.9844 10.0712 15.9355C10.3329 15.8865 10.5734 15.7591 10.7609 15.5701C10.9509 15.3855 11.0794 15.1468 11.1287 14.8866C11.178 14.6263 11.1458 14.3572 11.0365 14.1159C10.9667 13.9554 10.8739 13.8059 10.7609 13.6722C10.9319 13.6568 11.103 13.6188 11.2723 13.5511C11.5208 13.4582 11.7347 13.2912 11.885 13.0726C12.0352 12.854 12.1146 12.5944 12.1122 12.3292C12.1122 11.7797 11.792 11.3099 11.2741 11.1073ZM3.95303 12.9701C3.82136 12.9229 3.70777 12.8356 3.6282 12.7206C3.54862 12.6055 3.50705 12.4685 3.50931 12.3286C3.50931 12.0364 3.67563 11.797 3.95303 11.6877C4.10224 11.6282 4.26169 11.5988 4.42229 11.6009C4.68068 11.6009 5.02817 11.6651 5.53129 11.8593C5.5396 11.8629 5.5503 11.8682 5.55921 11.8712L6.21558 12.1421C6.19794 12.2674 6.19794 12.3946 6.21558 12.5199L5.56396 12.7872L5.55921 12.7884C5.54851 12.7937 5.53782 12.7973 5.52594 12.802C5.01926 12.9963 4.44189 13.1626 3.95303 12.9701ZM6.45615 14.0102L6.45436 14.0156C6.4508 14.0263 6.44605 14.0363 6.44248 14.0482C6.2227 14.5424 5.93283 15.064 5.4505 15.2719C5.32321 15.3305 5.18091 15.3483 5.0431 15.3229C4.90528 15.2975 4.7787 15.2301 4.68068 15.1299C4.58004 15.0333 4.51218 14.9077 4.48661 14.7706C4.46104 14.6335 4.47905 14.4918 4.53812 14.3654C4.65692 14.0934 4.89749 13.7643 5.77364 13.3794L5.80156 13.3687L6.45793 13.0984C6.53515 13.2006 6.62544 13.2909 6.72701 13.3657L6.45615 14.0102ZM6.45615 11.5612L5.80512 11.2927L5.79978 11.2909C5.78968 11.2873 5.7772 11.282 5.76651 11.279C5.26933 11.0604 4.74364 10.7723 4.53396 10.2941C4.41516 10.0221 4.46981 9.73579 4.67712 9.52967C4.88502 9.32355 5.17311 9.2695 5.44694 9.38711C5.72137 9.50591 6.05282 9.7447 6.4407 10.6149C6.4439 10.6251 6.44788 10.635 6.45258 10.6446L6.72523 11.2962C6.62425 11.3705 6.53337 11.4608 6.45615 11.5612ZM8.14429 15.8475C8.0344 16.1231 7.79383 16.2882 7.49862 16.2882C7.2034 16.2882 6.96283 16.1231 6.85234 15.8475C6.74245 15.5718 6.6783 15.1703 7.02342 14.2823C7.02698 14.2722 7.03233 14.2633 7.03589 14.2526L7.30854 13.6015C7.43465 13.619 7.56258 13.619 7.6887 13.6015L7.95778 14.2478L7.95956 14.2532C7.96491 14.2633 7.96788 14.2739 7.97322 14.2858C8.17043 14.7907 8.33853 15.3616 8.14429 15.8475ZM6.82977 12.3292C6.82977 11.9633 7.13034 11.6651 7.49862 11.6651C7.8669 11.6651 8.16746 11.9633 8.16746 12.3292C8.16746 12.6945 7.8669 12.9927 7.49862 12.9927C7.13034 12.9927 6.82977 12.6945 6.82977 12.3292ZM7.95956 10.4106L7.69048 11.0551C7.5636 11.0371 7.43482 11.0371 7.30794 11.0551L7.03767 10.4088L7.03589 10.4029C7.03054 10.3928 7.02698 10.3827 7.02163 10.3702C6.82443 9.86766 6.65929 9.29385 6.85234 8.80855C6.96283 8.53294 7.2034 8.36899 7.49862 8.36899C7.79383 8.36899 8.0344 8.53294 8.14429 8.80855C8.25597 9.08773 8.32071 9.49759 7.95956 10.4106ZM10.3177 15.1281C10.1098 15.3348 9.82234 15.3883 9.54792 15.2707C9.27408 15.1525 8.94204 14.9137 8.55475 14.0435C8.55153 14.0333 8.54756 14.0234 8.54287 14.0138L8.27022 13.3622C8.37298 13.2861 8.46387 13.1958 8.5393 13.0949L9.19033 13.3639L9.19567 13.3657L9.22716 13.3776C9.72433 13.5962 10.2518 13.8837 10.4597 14.3636C10.5797 14.6345 10.5274 14.9202 10.3177 15.1281ZM11.0424 12.9701C10.765 13.0794 10.3599 13.1436 9.46594 12.8002L9.43803 12.7884L8.78166 12.5181C8.79951 12.392 8.79951 12.264 8.78166 12.1379L9.4309 11.8712C9.94768 11.6704 10.5435 11.4899 11.0442 11.6877C11.3216 11.797 11.4879 12.0364 11.4879 12.3292C11.4879 12.622 11.3198 12.8608 11.0424 12.9701Z" fill="#009FFF"/>
</g>
<defs>
<clipPath id="clip0_4502_9681">
<rect width="29.7" height="10.8" fill="white" transform="translate(2.88086 6.46289)"/>
</clipPath>
</defs>
</svg>
