<svg width="24" height="24" viewBox="0 0 24 24" fill="none" xmlns="http://www.w3.org/2000/svg">
<path fill-rule="evenodd" clip-rule="evenodd" d="M12 4.01247C7.3424 4.01247 3.56667 7.7882 3.56667 12.4458C3.56667 17.1034 7.3424 20.8791 12 20.8791C16.6576 20.8791 20.4333 17.1034 20.4333 12.4458C20.4333 7.7882 16.6576 4.01247 12 4.01247ZM0.5 12.4458C0.5 6.09453 5.64873 0.945801 12 0.945801C18.3513 0.945801 23.5 6.09453 23.5 12.4458C23.5 18.7971 18.3513 23.9458 12 23.9458C5.64873 23.9458 0.5 18.7971 0.5 12.4458Z" fill="white"/>
<path d="M14.6833 8.22913C14.6833 9.49939 13.6536 10.5291 12.3833 10.5291C11.1131 10.5291 10.0833 9.49939 10.0833 8.22913C10.0833 6.95888 11.1131 5.92913 12.3833 5.92913C13.6536 5.92913 14.6833 6.95888 14.6833 8.22913Z" fill="white"/>
<path d="M7.9024 13.0905C6.54003 13.0905 5.53804 12.7246 5.06509 12.3587L4.71667 12.1191C4.82559 14.8205 5.58505 17.2156 7.78333 18.3875C10.0171 16.2815 14.255 13.0528 16.237 12.5416C17.1463 12.307 18.448 12.2906 19.2803 12.3587C19.2893 12.2352 19.2753 12.1155 19.2782 11.9903C18.8624 11.5014 17.6175 10.5291 15.705 10.5291C14.2678 10.5291 13.3933 11.0106 12.3535 11.5831C12.0096 11.7725 11.6477 11.9717 11.2412 12.1668C9.84698 12.8363 9.26477 13.0905 7.9024 13.0905Z" fill="white"/>
<path d="M19.2833 13.2471C19.0084 16.8722 15.5556 19.7291 11.8096 19.7291C10.6347 19.7291 9.52641 19.4481 8.55 18.9506C10.7892 16.9325 14.2668 13.9078 16.2536 13.4179C17.165 13.1932 18.449 13.1819 19.2833 13.2471Z" fill="white"/>
</svg>
