<?xml version="1.0" encoding="utf-8"?>
<!-- Generator: Adobe Illustrator 28.1.0, SVG Export Plug-In . SVG Version: 6.00 Build 0)  -->
<svg version="1.1" id="ELV-Symbol" xmlns="http://www.w3.org/2000/svg" xmlns:xlink="http://www.w3.org/1999/xlink" x="0px" y="0px"
	 viewBox="0 0 125 125" style="enable-background:new 0 0 125 125;" xml:space="preserve">
<style type="text/css">
	.st0{fill:#00A5E1;}
	.st1{fill:#FFFFFF;}
	.st2{fill:#F18E00;}
	.st3{fill:#005ABB;}
</style>
<path class="st0" d="M121.1,62.5c0,32.4-26.2,58.6-58.6,58.6S3.9,94.9,3.9,62.5c0-32.4,26.2-58.6,58.6-58.6
	C94.9,3.9,121.1,30.1,121.1,62.5C121.1,62.5,121.1,62.5,121.1,62.5"/>
<path class="st1" d="M62.5,125C28,125,0,97,0,62.5S28,0,62.5,0S125,28,125,62.5C125,97,97,125,62.5,125z M62.5,7.7
	C32.3,7.7,7.7,32.3,7.7,62.5s24.5,54.8,54.8,54.8s54.8-24.5,54.8-54.8c0,0,0,0,0,0C117.2,32.3,92.7,7.8,62.5,7.7z"/>
<path class="st1" d="M103,62.5c0,22.4-18.1,40.5-40.5,40.5C40.1,103,22,84.9,22,62.5C22,40.1,40.1,22,62.5,22
	C84.9,22,103,40.1,103,62.5C103,62.5,103,62.5,103,62.5"/>
<path class="st0" d="M40.5,93c7.9-2.1,14.5-8.3,21.3-14.7c8.5-8,17.3-16.4,29.2-16.4c3.1,0,6.2,0.5,9.1,1.5l0,0c0-0.3,0-0.6,0-0.9
	c0-0.9,0-1.8-0.1-2.7C75,42.9,50,81.3,24.9,64.7C25.6,76,31.3,86.4,40.5,93L40.5,93"/>
<path class="st2" d="M81.8,40.9c0,6.9-5.6,12.6-12.6,12.6s-12.6-5.6-12.6-12.6c0-6.9,5.6-12.6,12.6-12.6
	C76.2,28.3,81.8,34,81.8,40.9C81.8,40.9,81.8,40.9,81.8,40.9"/>
<path class="st3" d="M63.9,80.5c-6.2,5.8-12.5,11.8-20.1,14.6c18,10.3,41,4,51.3-14c2.5-4.5,4.1-9.4,4.7-14.5
	c-2.8-1.1-5.8-1.6-8.9-1.6C80.3,65,72.4,72.6,63.9,80.5"/>
</svg>
