<svg width="128" height="32" viewBox="0 0 128 32" fill="none" xmlns="http://www.w3.org/2000/svg">
<g clip-path="url(#clip0_6953_8376)">
<path fill-rule="evenodd" clip-rule="evenodd" d="M36.8472 2.76688H39.8586L43.7175 13.6971L47.5998 2.76688H50.6079L44.9066 17.5057H42.592L36.8472 2.76688Z" fill="#00A5E1"/>
<path fill-rule="evenodd" clip-rule="evenodd" d="M58.2118 5.01789C60.9954 5.04804 63.2297 7.32586 63.2029 10.1128V10.143C63.2029 12.9702 60.9753 15.2446 58.2352 15.2446C55.4952 15.2446 53.2475 12.9501 53.2475 10.1664C53.2475 7.3828 55.4784 5.02459 58.2151 5.02459M58.2151 2.4855C53.9911 2.51564 50.5911 5.96587 50.6213 10.1899C50.6514 14.4139 54.1017 17.8139 58.3257 17.7837C62.5262 17.7536 65.9128 14.3436 65.9195 10.1463C65.9028 5.90557 62.4559 2.47545 58.2151 2.4855Z" fill="#00A5E1"/>
<path fill-rule="evenodd" clip-rule="evenodd" d="M70.3678 17.5057H73.0845V12.0724L77.9416 2.78027H74.9402L71.7379 9.55678L68.5154 2.78027H65.5342L70.3678 12.0724V17.5057Z" fill="#00A5E1"/>
<path fill-rule="evenodd" clip-rule="evenodd" d="M81.9712 11.168L83.5389 6.64252L85.1066 11.168H81.9712ZM76.3403 17.5057H79.345L80.9797 13.7071H86.1919L87.7797 17.5057H90.771L84.6041 2.78027H82.4837L76.347 17.5057H76.3403Z" fill="#00A5E1"/>
<path fill-rule="evenodd" clip-rule="evenodd" d="M98.3815 12.5481H102.874C102.063 14.1962 100.388 15.2413 98.549 15.2413C95.5678 15.2413 93.3167 13.0539 93.3167 10.0961C93.3268 7.30243 95.5979 5.03801 98.3949 5.04136C99.9626 5.03131 101.436 5.7984 102.324 7.09475H105.57C104.646 4.46521 101.577 2.47882 98.4385 2.47882C94.1307 2.45537 90.6235 5.93239 90.6001 10.2401V10.2502C90.6001 14.4039 94.1776 17.7804 98.5959 17.7804C102.746 17.7804 106.32 14.3335 106.32 10.3607V10.009H98.3849V12.5481H98.3815Z" fill="#00A5E1"/>
<path fill-rule="evenodd" clip-rule="evenodd" d="M108.495 2.76688H116.186V5.17533H111.084V8.97393H115.965V11.3824H111.084V15.0939H116.186V17.5024H108.495V2.76688Z" fill="#00A5E1"/>
<path fill-rule="evenodd" clip-rule="evenodd" d="M120.493 13.3822C120.57 14.5847 121.374 15.3652 122.62 15.3652C123.866 15.3652 124.707 14.5546 124.707 13.4358C124.707 12.317 124.134 11.6939 122.647 11.1546C120.483 10.3741 120.141 10.1999 119.532 9.59028C118.731 8.78969 118.289 7.70103 118.306 6.56882C118.306 4.3647 120.272 2.4788 122.597 2.4788C124.901 2.44865 126.811 4.25415 126.908 6.55542H124.208C124.094 5.54045 123.474 4.904 122.553 4.904C121.532 4.904 120.892 5.517 120.892 6.47838C120.892 7.52014 121.418 7.93551 123.444 8.62556C126.144 9.55678 127.293 10.8933 127.293 13.0539C127.3 15.6499 125.2 17.7636 122.603 17.7703H122.536C119.954 17.7703 117.954 15.9045 117.783 13.3788H120.5L120.493 13.3822Z" fill="#00A5E1"/>
<path d="M16.0017 0C7.16508 0 0 7.16508 0 15.9983C0 24.8316 7.16508 32 15.9983 32C24.8316 32 32 24.8383 32 16.0017C32 7.16173 24.8349 0 15.9983 0H16.0017ZM16.0017 27.8095C9.47974 27.8095 4.19387 22.5203 4.19387 16.0017C4.19387 9.4831 9.47974 4.19387 16.0017 4.19387C22.5236 4.19387 27.8095 9.47974 27.8095 16.0017C27.8095 22.5236 22.5203 27.8095 16.0017 27.8095Z" fill="#00A5E1"/>
<path d="M9.59016 24.8885C11.9015 24.2755 13.8008 22.4734 15.7939 20.5908C18.2727 18.246 20.8352 15.8208 24.3156 15.8208C25.2167 15.8309 26.1077 15.9782 26.9585 16.2663C26.9585 16.1759 26.9652 16.0854 26.9652 15.995C26.9652 15.7304 26.9518 15.4724 26.9351 15.2112C19.6394 10.2803 12.3436 21.4752 5.05127 16.6381C5.24555 19.9309 6.91037 22.9591 9.58346 24.8885" fill="#00A5E1"/>
<path d="M21.629 9.71087C21.629 11.7341 19.9877 13.3755 17.9644 13.3755C15.9412 13.3755 14.2998 11.7341 14.2998 9.71087C14.2998 7.68763 15.9412 6.04626 17.9644 6.04626C19.9877 6.04626 21.629 7.68428 21.629 9.71087Z" fill="#F18924"/>
<path d="M16.4205 21.2607C14.6217 22.9624 12.7793 24.7009 10.5752 25.5283C15.8309 28.5263 22.5237 26.6974 25.5217 21.445C26.2653 20.1453 26.731 18.7049 26.8951 17.221C26.0677 16.9128 25.1934 16.752 24.3125 16.7453C21.1972 16.7453 18.8758 18.9394 16.4205 21.2641" fill="#0066CC"/>
<path d="M42.7663 27.7726C43.2118 27.7726 43.5736 28.1344 43.5736 28.5799C43.5736 29.0254 43.2118 29.3872 42.7663 29.3872C42.3208 29.3872 41.959 29.0254 41.959 28.5799C41.959 28.1344 42.3208 27.7726 42.7663 27.7726Z" fill="#F18924"/>
<path fill-rule="evenodd" clip-rule="evenodd" d="M38.3411 24.6406V25.746H40.7831V26.8548H38.3411V28.0842H41.1616V29.3135H36.8472V23.4079H41.1214V24.6373H38.3411V24.6406Z" fill="#0066CC"/>
<path fill-rule="evenodd" clip-rule="evenodd" d="M45.9182 23.4113V28.0842H48.2262V29.3135H44.4209V23.4079H45.9182V23.4113Z" fill="#0066CC"/>
<path fill-rule="evenodd" clip-rule="evenodd" d="M49.9677 26.4327H52.0446V26.272C52.0345 25.659 51.7699 25.5484 51.0095 25.5484C50.2491 25.5484 49.9744 25.6623 49.9744 26.4327M53.3543 27.8396V27.91C53.3543 28.9852 52.6576 29.3671 51.1201 29.3671C49.2241 29.3671 48.6479 28.9149 48.6479 26.9453C48.6479 24.9756 49.3011 24.5736 51.0095 24.5736C52.7179 24.5736 53.3543 25.0359 53.3543 26.7945V27.2065H49.9744V27.3975C49.9744 28.2014 50.3027 28.4124 51.0497 28.4124C51.7063 28.4124 52.0211 28.3019 52.0446 27.8396H53.351H53.3543Z" fill="#0066CC"/>
<path d="M61.1193 23.4113H59.7827V29.3169H61.1193V23.4113Z" fill="#0066CC"/>
<path fill-rule="evenodd" clip-rule="evenodd" d="M56.6174 28.3387C57.2807 28.3387 57.5554 28.198 57.5688 27.6085H58.8685C58.8651 28.9819 58.2421 29.3638 56.537 29.3638C54.832 29.3638 54.2324 28.8512 54.2324 26.9687C54.2324 25.0861 54.8387 24.5736 56.537 24.5736C58.2354 24.5736 58.8584 24.9555 58.8685 26.3155H57.5688C57.552 25.7393 57.274 25.5987 56.6174 25.5987C55.8235 25.5987 55.5891 25.746 55.5891 26.9653C55.5891 28.1847 55.8235 28.332 56.6174 28.332" fill="#0066CC"/>
<path fill-rule="evenodd" clip-rule="evenodd" d="M63.4408 26.4327H65.5143V26.272C65.5043 25.659 65.2396 25.5484 64.4792 25.5484C63.7188 25.5484 63.4408 25.6623 63.4408 26.4327ZM66.8207 27.8396V27.91C66.8207 28.9852 66.124 29.3671 64.5898 29.3671C62.6938 29.3671 62.1177 28.9149 62.1177 26.9453C62.1177 24.9756 62.7742 24.5736 64.4792 24.5736C66.1843 24.5736 66.8241 25.0359 66.8241 26.7945V27.2065H63.4442V27.3975C63.4442 28.2014 63.7724 28.4124 64.5194 28.4124C65.1726 28.4124 65.4909 28.3019 65.5177 27.8396H66.8241H66.8207Z" fill="#0066CC"/>
<path fill-rule="evenodd" clip-rule="evenodd" d="M73.3191 28.3387C73.9823 28.3387 74.257 28.198 74.2704 27.6085H75.5701C75.5668 28.9819 74.9437 29.3638 73.2387 29.3638C71.5337 29.3638 70.9341 28.8512 70.9341 26.9687C70.9341 25.0861 71.5404 24.5736 73.2387 24.5736C74.937 24.5736 75.5601 24.9555 75.5701 26.3155H74.2704C74.2537 25.7393 73.9756 25.5987 73.3191 25.5987C72.5252 25.5987 72.2907 25.746 72.2907 26.9653C72.2907 28.1847 72.5252 28.332 73.3191 28.332" fill="#0066CC"/>
<path d="M70.5989 25.7896C70.5989 25.7896 70.2707 25.7896 70.2305 25.7896C69.4969 25.7896 69.1451 26.215 69.1451 27.1429V29.3202H67.8086V24.6641H69.1451V25.3575C69.3964 24.8751 69.8955 24.5736 70.4381 24.5803H70.5989V25.7929V25.7896Z" fill="#0066CC"/>
<path d="M80.042 24.2186V23.4113H82.5643V24.2186C82.2595 24.2956 82.0485 24.5703 82.0552 24.8818V28.2449H83.0132C83.4822 28.2449 83.9076 27.9636 84.0885 27.5281H84.7082V29.3169H80.042V28.2751C80.3401 28.1947 80.5512 27.9301 80.5512 27.6219V24.9053C80.5679 24.5837 80.3535 24.2956 80.042 24.2186Z" fill="#0066CC"/>
<path fill-rule="evenodd" clip-rule="evenodd" d="M78.0758 26.0308C78.0758 28.6436 80.1928 30.7606 82.8056 30.7606C85.4184 30.7606 87.5354 28.6436 87.5354 26.0308C87.5354 23.418 85.4184 21.301 82.8056 21.301C80.1928 21.301 78.0758 23.418 78.0758 26.0308ZM76.8364 26.0308C76.8364 22.7346 79.5094 20.0616 82.8056 20.0616C86.1017 20.0616 88.7748 22.7346 88.7748 26.0308C88.7748 29.3269 86.1051 32 82.8056 32C79.5061 32 76.8364 29.3269 76.833 26.0308H76.8364Z" fill="#0066CC"/>
<path fill-rule="evenodd" clip-rule="evenodd" d="M81.4487 22.9222C82.9193 21.8537 84.976 22.1786 86.0446 23.6458C87.1131 25.1163 86.7882 27.173 85.321 28.2416C85.2808 28.2718 85.2406 28.3019 85.2004 28.3287V27.0357H83.7768C83.7768 27.0357 83.6261 27.7592 83.0198 27.7592H82.5441V25.046C82.5474 24.7646 82.7719 24.5368 83.0533 24.5268V22.9155H81.4487V22.9222Z" fill="#F18924"/>
</g>
<defs>
<clipPath id="clip0_6953_8376">
<rect width="127.29" height="32" fill="white"/>
</clipPath>
</defs>
</svg>
