<svg width="50" height="34" viewBox="0 0 50 34" fill="none" xmlns="http://www.w3.org/2000/svg">
<g clip-path="url(#clip0_5670_18390)">
<rect y="0.333252" width="50" height="33.3333" rx="2" fill="#F2F2F2"/>
<g clip-path="url(#clip1_5670_18390)">
<rect x="16.1113" y="5.08691" width="29.5146" height="21.1206" rx="1.7975" fill="url(#paint0_linear_5670_18390)"/>
<rect x="16.1113" y="5.08691" width="29.5146" height="21.1206" rx="1.7975" fill="black" fill-opacity="0.2"/>
<rect x="16.1113" y="9.80542" width="31.4562" height="4.19416" fill="#115CA8"/>
<rect x="19.2578" y="19.2424" width="5.2427" height="2.09708" rx="0.52427" fill="#115CA8"/>
<rect x="25.5488" y="19.2424" width="5.2427" height="2.09708" rx="0.52427" fill="#115CA8"/>
<rect x="31.8398" y="19.2424" width="5.2427" height="2.09708" rx="0.52427" fill="#115CA8"/>
</g>
<g filter="url(#filter0_d_5670_18390)">
<g clip-path="url(#clip2_5670_18390)">
<rect x="5.625" y="8.23267" width="29.5146" height="21.1206" rx="1.7975" fill="url(#paint1_linear_5670_18390)"/>
<rect x="5.625" y="12.9512" width="31.4562" height="4.19416" fill="#115CA8"/>
<rect x="8.77148" y="22.3879" width="5.2427" height="2.09708" rx="0.52427" fill="#115CA8"/>
<rect x="15.0625" y="22.3879" width="5.2427" height="2.09708" rx="0.52427" fill="#115CA8"/>
<rect x="21.3535" y="22.3879" width="5.2427" height="2.09708" rx="0.52427" fill="#115CA8"/>
</g>
</g>
</g>
<defs>
<filter id="filter0_d_5670_18390" x="-6.95749" y="-2.25274" width="54.6786" height="46.2856" filterUnits="userSpaceOnUse" color-interpolation-filters="sRGB">
<feFlood flood-opacity="0" result="BackgroundImageFix"/>
<feColorMatrix in="SourceAlpha" type="matrix" values="0 0 0 0 0 0 0 0 0 0 0 0 0 0 0 0 0 0 127 0" result="hardAlpha"/>
<feOffset dy="2.09708"/>
<feGaussianBlur stdDeviation="6.29124"/>
<feComposite in2="hardAlpha" operator="out"/>
<feColorMatrix type="matrix" values="0 0 0 0 0 0 0 0 0 0 0 0 0 0 0 0 0 0 0.35 0"/>
<feBlend mode="normal" in2="BackgroundImageFix" result="effect1_dropShadow_5670_18390"/>
<feBlend mode="normal" in="SourceGraphic" in2="effect1_dropShadow_5670_18390" result="shape"/>
</filter>
<linearGradient id="paint0_linear_5670_18390" x1="30.8686" y1="5.08691" x2="30.8686" y2="26.2075" gradientUnits="userSpaceOnUse">
<stop stop-color="#0066CC"/>
<stop offset="1" stop-color="#00A5E1"/>
</linearGradient>
<linearGradient id="paint1_linear_5670_18390" x1="20.3823" y1="8.23267" x2="20.3823" y2="29.3533" gradientUnits="userSpaceOnUse">
<stop stop-color="#0066CC"/>
<stop offset="1" stop-color="#00A5E1"/>
</linearGradient>
<clipPath id="clip0_5670_18390">
<rect y="0.333252" width="50" height="33.3333" rx="2" fill="white"/>
</clipPath>
<clipPath id="clip1_5670_18390">
<rect x="16.1113" y="5.08691" width="29.5146" height="21.1206" rx="1.7975" fill="white"/>
</clipPath>
<clipPath id="clip2_5670_18390">
<rect x="5.625" y="8.23267" width="29.5146" height="21.1206" rx="1.7975" fill="white"/>
</clipPath>
</defs>
</svg>
