<svg width="52" height="37" viewBox="0 0 52 37" fill="none" xmlns="http://www.w3.org/2000/svg">
<path d="M24 15H12.5L9.5 9H3L6.5 22H24L18 35.5H24.5L35 22.5H40.75H46.75C48.8211 22.5 50.5 20.8211 50.5 18.75V18.75C50.5 16.6789 48.8211 15 46.75 15H35.25M24 15L18 1.5H24L35.25 15M24 15H35.25" stroke="#00A5E1" stroke-width="3"/>
<path d="M5 29H15.5" stroke="#EF8C24" stroke-width="3"/>
<path d="M4 34H11" stroke="#EF8C24" stroke-width="3"/>
<path d="M7 2L14 2" stroke="#EF8C24" stroke-width="3"/>
<path d="M2 2L5 2" stroke="#EF8C24" stroke-width="3"/>
<path d="M0 29L3 29" stroke="#EF8C24" stroke-width="3"/>
</svg>
